<?xml version="1.0" standalone="no"?>
<!DOCTYPE svg PUBLIC "-//W3C//DTD SVG 1.1//EN" "http://www.w3.org/Graphics/SVG/1.1/DTD/svg11.dtd" >
<svg xmlns="http://www.w3.org/2000/svg" xmlns:xlink="http://www.w3.org/1999/xlink" version="1.1">
<metadata>
Created by FontForge 20170731 at Mon Apr 29 06:54:13 2019
 By Aleksey,,,
(c) Edric Studio
</metadata>
<defs>
<font id="ALDITHRegular" horiz-adv-x="0" >
  <font-face 
    font-family="ALDITH"
    font-weight="400"
    font-stretch="normal"
    units-per-em="1000"
    panose-1="0 0 0 0 0 0 0 0 0 0"
    ascent="800"
    descent="-200"
    x-height="564"
    cap-height="699"
    bbox="-30 -13 877 705"
    underline-thickness="50"
    underline-position="-250"
    unicode-range="U+000A-2265"
  />
<missing-glyph horiz-adv-x="527" 
d="M50 700h427v-700h-427v700zM78 680l185 -309l186 309h-371zM251 350l-180 300v-601zM264 329l-185 -308h370zM276 350l181 -303v605z" />
    <glyph glyph-name=".notdef" horiz-adv-x="527" 
d="M50 700h427v-700h-427v700zM78 680l185 -309l186 309h-371zM251 350l-180 300v-601zM264 329l-185 -308h370zM276 350l181 -303v605z" />
    <glyph glyph-name=".null" 
 />
    <glyph glyph-name=".null" 
 />
    <glyph glyph-name="nonmarkingreturn" horiz-adv-x="333" 
 />
    <glyph glyph-name="controlLF" unicode="&#xa;" 
 />
    <glyph glyph-name="controlCR" unicode="&#xd;" 
 />
    <glyph glyph-name="space" unicode=" " horiz-adv-x="306" 
 />
    <glyph glyph-name="exclam" unicode="!" horiz-adv-x="208" 
d="M156 202h-104v499h104v-499zM104 112q23 0 39.5 -16.5t16.5 -39.5t-16.5 -39.5t-39.5 -16.5t-39.5 16.5t-16.5 39.5t16.5 39.5t39.5 16.5z" />
    <glyph glyph-name="quotedbl" unicode="&#x22;" horiz-adv-x="238" 
d="M102 539h-98v160h98v-160zM233 539h-98v160h98v-160z" />
    <glyph glyph-name="quotedbl" unicode="&#x201d;" horiz-adv-x="238" 
d="M102 539h-98v160h98v-160zM233 539h-98v160h98v-160z" />
    <glyph glyph-name="quotedbl" unicode="&#x201c;" horiz-adv-x="238" 
d="M102 539h-98v160h98v-160zM233 539h-98v160h98v-160z" />
    <glyph glyph-name="numbersign" unicode="#" horiz-adv-x="798" 
d="M749 547v-110h-109l-67 -184h176v-110h-216l-51 -139h-110l51 139h-183l-51 -139h-110l51 139h-82v110h122l66 184h-188v110h228l58 158h110l-57 -158h183l58 158h110l-58 -158h69zM463 253l67 184h-184l-66 -184h183z" />
    <glyph glyph-name="dollar" unicode="$" horiz-adv-x="431" 
d="M256 395q45 -11 77 -43q50 -49 50 -119q0 -58 -35.5 -103.5t-91.5 -59.5v-69h-82v69q-55 14 -90.5 59.5t-35.5 103.5q0 13 2 27h100q-6 -13 -6 -27q0 -37 30 -58v134q-44 11 -76 43q-50 49 -50 119q0 58 35.5 103t90.5 59v66h82v-66q55 -14 91 -59t36 -103v-6h-97v6
q0 36 -30 58v-134zM174 413v116q-30 -22 -30 -58t30 -58zM256 175q30 21 30 57.5t-30 57.5v-115z" />
    <glyph glyph-name="percent" unicode="%" horiz-adv-x="669" 
d="M473 680h98l-375 -651h-99zM334 536.5q0 -59.5 -42 -101.5t-101 -42t-101 42t-42 101.5t42 101.5t101 42t101 -42t42 -101.5zM120 536.5q0 -29.5 21 -50t50 -20.5t50 20.5t21 50t-21 50t-50 20.5t-50 -20.5t-21 -50zM477.5 316q59.5 0 101.5 -42t42 -101.5t-42 -101.5
t-101.5 -42t-101.5 42t-42 101.5t42 101.5t101.5 42zM478 102q11 0 22 3.5t19.5 10t15 15t10 19.5t3.5 23q0 29 -20.5 49.5t-49.5 20.5q-20 0 -36 -9.5t-25.5 -25.5t-9.5 -35q0 -30 20.5 -50.5t50.5 -20.5z" />
    <glyph glyph-name="ampersand" unicode="&#x26;" horiz-adv-x="762" 
d="M533 228l180 -159l-63 -71l-161 143q-13 -30 -34.5 -55t-48.5 -43t-59.5 -28t-67.5 -10q-96 0 -163.5 68t-67.5 163q0 64 32 117.5t86 84.5q-43 44 -43 106q0 42 21 78t57 57t78 21q64 0 110 -46t46 -110q0 -62 -43 -106q-22 -25 -53 -38l116 -103l28 48l53 92h118z
M279 619q-32 0 -54.5 -22.5t-22.5 -54.5q0 -38 41 -68q11 -8 21 -9h4h4.5h3.5h6q31 1 52.5 23.5t21.5 53.5q0 32 -22.5 54.5t-54.5 22.5zM279 122q29 0 54.5 13.5t41 37.5t18.5 53l-138 122q-39 -8 -64.5 -39.5t-25.5 -72.5q0 -47 33.5 -80.5t80.5 -33.5z" />
    <glyph glyph-name="quotesingle" unicode="'" horiz-adv-x="236" 
d="M146 695l41 -71v-122h-99l1 122l-41 72z" />
    <glyph glyph-name="quotesingle" unicode="&#x2019;" horiz-adv-x="236" 
d="M146 695l41 -71v-122h-99l1 122l-41 72z" />
    <glyph glyph-name="quotesingle" unicode="&#x2018;" horiz-adv-x="236" 
d="M146 695l41 -71v-122h-99l1 122l-41 72z" />
    <glyph glyph-name="parenleft" unicode="(" horiz-adv-x="279" 
d="M231 658q-70 -105 -70 -337q0 -227 65 -330h-130q-48 148 -48 317q0 190 59 350h124z" />
    <glyph glyph-name="parenright" unicode=")" horiz-adv-x="279" 
d="M172 658q59 -160 59 -350q0 -169 -48 -317h-131q65 103 65 330q0 232 -69 337h124z" />
    <glyph glyph-name="asterisk" unicode="*" horiz-adv-x="351" 
d="M303 564v-49h-89l59 -103h-49l-24 42v-42h-49v37l-22 -37h-49l59 103h-91v49h88l-59 103h49l25 -42v42h49v-47l27 47h49l-59 -103h86z" />
    <glyph glyph-name="plus" unicode="+" horiz-adv-x="473" 
d="M288 365h137v-104h-137v-134h-104v134h-136v104h136v139h104v-139z" />
    <glyph glyph-name="comma" unicode="," horiz-adv-x="236" 
d="M146 207l42 -72v-122h-99v122l-41 72h98z" />
    <glyph glyph-name="hyphen" unicode="-" horiz-adv-x="473" 
d="M425 264h-377v104h377v-104z" />
    <glyph glyph-name="period" unicode="." horiz-adv-x="202" 
d="M100.5 118q21.5 0 37 -15t15.5 -37t-15.5 -37.5t-37 -15.5t-37 15.5t-15.5 37.5t15.5 37t37 15z" />
    <glyph glyph-name="slash" unicode="/" horiz-adv-x="388" 
d="M259 691h81l-212 -693h-80z" />
    <glyph glyph-name="zero" unicode="0" horiz-adv-x="496" 
d="M248 699q83 0 141.5 -58.5t58.5 -141.5v-299q0 -54 -26.5 -100t-72.5 -73t-101 -27q-83 0 -141.5 58.5t-58.5 141.5v299q0 83 58.5 141.5t141.5 58.5zM322 248v192q0 54 -21.5 91.5t-52 37.5t-52.5 -37.5t-22 -91.5v-192q0 -54 22 -91.5t52.5 -37.5t52 37.5t21.5 91.5z
" />
    <glyph glyph-name="one" unicode="1" horiz-adv-x="343" 
d="M48 699h247v-699h-119v601h-92z" />
    <glyph glyph-name="two" unicode="2" horiz-adv-x="529" 
d="M481 120v-120h-433v119v5l108 146l82 111v1q12 13 24 25q4 4 12 11t12.5 11.5t10 11.5t8.5 14t3 16q1 0 1 2v18q0 27 -19 46t-46 19q-24 0 -42 -16t-21 -40h-133q0 81 57.5 138.5t138.5 57.5t139 -57q58 -58 58 -139v-55q0 -48 -24.5 -87t-67.5 -79q-17 -15 -46 -55
t-51 -72l-21 -33z" />
    <glyph glyph-name="three" unicode="3" horiz-adv-x="518" 
d="M470 492q0 -84 -60 -144q60 -60 60 -144q0 -85 -60 -144.5t-144 -59.5h-14q-81 0 -139.5 55t-64.5 135h132q5 -27 26.5 -45t49.5 -18h5q32 0 54.5 22.5t22.5 54.5t-22.5 54.5t-54.5 22.5h-5q-14 0 -25 -5v144q11 -5 25 -5h5q32 0 54.5 22.5t22.5 54.5t-22.5 54.5
t-54.5 22.5h-5q-18 0 -33.5 -7.5t-26.5 -21t-15 -30.5h-133q7 78 65.5 132t138.5 54h14q84 0 144 -59.5t60 -144.5z" />
    <glyph glyph-name="four" unicode="4" horiz-adv-x="568" 
d="M479 343l41 -114h-92v-229h-114v229h-266v470h114v-356h152v356h113l1 -356h51z" />
    <glyph glyph-name="five" unicode="5" horiz-adv-x="544" 
d="M273 426q58 0 107.5 -29t78.5 -78.5t29 -107.5q0 -89 -63 -152t-152 -63h-15q-76 0 -135 47.5t-75 121.5h148q24 -35 67 -35h5q34 0 57.5 23.5t23.5 57t-23.5 57.5t-57.5 24h-5q-36 0 -60 -27h-138q-2 23 -1 38v396h393l39 -114h-325v-178q42 19 87 19h15z" />
    <glyph glyph-name="six" unicode="6" horiz-adv-x="526" 
d="M270 414q86 0 147 -60.5t61 -147t-61 -147t-147 -60.5h-14q-86 0 -147 60.5t-61 146.5q0 48 16 84l149 409h138l-102 -285h3.5h3.5h14zM266 128q32 0 55 23t23 55.5t-23 55.5t-55 23h-6q-32 0 -55 -23t-23 -55.5t23 -55.5t55 -23h6z" />
    <glyph glyph-name="seven" unicode="7" horiz-adv-x="550" 
d="M48 699h454l-252 -699h-115l211 585h-257z" />
    <glyph glyph-name="eight" unicode="8" horiz-adv-x="518" 
d="M470 495q0 -84 -59 -144q59 -60 59 -144q0 -85 -59.5 -144.5t-144.5 -59.5h-14q-84 0 -144 59.5t-60 144.5q0 84 60 144q-60 60 -60 144t60 144t144 60h14q85 0 144.5 -60t59.5 -144zM262 130q32 0 54.5 22.5t22.5 54.5t-22.5 54.5t-54.5 22.5h-6q-15 0 -29.5 -6.5
t-24.5 -16.5t-16 -24.5t-6 -29.5q0 -21 10 -39t28 -28t38 -10h6zM262 418q32 0 54.5 22.5t22.5 54.5t-22.5 54.5t-54.5 22.5h-6q-31 0 -53.5 -22.5t-22.5 -54.5t22.5 -54.5t53.5 -22.5h6z" />
    <glyph glyph-name="nine" unicode="9" horiz-adv-x="525" 
d="M270 699q86 0 146.5 -61t60.5 -146q0 -48 -16 -84l-148 -408h-142l106 284h-3h-4h-15q-86 0 -146.5 61t-60.5 146.5t60.5 146.5t146.5 61h15zM265 413q33 0 55.5 23t22.5 56q0 21 -10.5 39t-28.5 28.5t-39 10.5h-5q-33 0 -55.5 -23t-22.5 -55.5t22.5 -55.5t55.5 -23h5z
" />
    <glyph glyph-name="colon" unicode=":" horiz-adv-x="202" 
d="M100.5 444q-21.5 0 -37 15t-15.5 37t15.5 37.5t37.5 15.5q14 0 26 -7t19 -19.5t7 -26.5q0 -22 -15.5 -37t-37 -15zM100.5 161q21.5 0 37 -15t15.5 -37t-15.5 -37.5t-37 -15.5t-37 15.5t-15.5 37.5t15.5 37t37 15z" />
    <glyph glyph-name="semicolon" unicode=";" horiz-adv-x="236" 
d="M146 258l42 -71v-122h-99v122l-41 71h98zM132.5 444q-21.5 0 -37 15t-15.5 37t15.5 37.5t37 15.5t37 -15.5t15.5 -37.5t-15.5 -37t-37 -15z" />
    <glyph glyph-name="less" unicode="&#x3c;" horiz-adv-x="404" 
d="M356 533l-178 -189l178 -198h-130l-178 198l178 189h130z" />
    <glyph glyph-name="equal" unicode="=" horiz-adv-x="473" 
d="M425 345h-377v104h377v-104zM425 201h-377v104h377v-104z" />
    <glyph glyph-name="greater" unicode="&#x3e;" horiz-adv-x="404" 
d="M178 533l178 -189l-178 -198h-130l178 198l-178 189h130z" />
    <glyph glyph-name="question" unicode="?" horiz-adv-x="498" 
d="M249 701q83 0 142 -58.5t59 -142.5q0 -71 -45 -126t-113 -70v-145h-111v235h68q37 2 64.5 35t27.5 71t-27 65t-65 27t-65 -27t-27 -65h-109q0 84 59 142.5t142 58.5zM249 111q25 0 42 -17.5t17 -42.5q0 -16 -8 -29.5t-21.5 -21.5t-29.5 -8q-25 0 -42.5 17.5t-17.5 42
t17.5 42t42.5 17.5z" />
    <glyph glyph-name="at" unicode="@" horiz-adv-x="725" 
d="M395 671q160 -13 236 -137q58 -95 42 -205q-14 -97 -79 -134q-21 -12 -46 -15q-74 -8 -98 50q-39 -33 -87 -33q-58 0 -99 44t-41 106t41 106t99 44q61 0 102 -48l9 26l48 -24q-53 -224 11 -218q17 1 38 18q28 24 38 63t1 82t-31 84.5t-62 75t-88 49.5q-45 14 -110.5 -4
t-121 -64t-79 -119t14.5 -167q21 -51 54 -85.5t68.5 -48.5t73.5 -18.5t71.5 1t60.5 12t43 13.5l16 7l28 -77q-72 -25 -138 -31t-109 4t-76.5 24t-48.5 26l-15 13q-54 56 -82.5 125t-30.5 134.5t21 127t66 106.5t110.5 69.5t149.5 17.5zM362.5 275q27.5 0 47 21t19.5 51
t-19.5 51t-47 21t-47 -21t-19.5 -51t19.5 -51t47 -21z" />
    <glyph glyph-name="A" unicode="A" horiz-adv-x="684" 
d="M48 1l65 154l72 -73l-36 -81h-101zM398 565l238 -564h-102l-192 440l-127 -290l-73 73l200 473z" />
    <glyph glyph-name="A" unicode="&#xc5;" horiz-adv-x="684" 
d="M48 1l65 154l72 -73l-36 -81h-101zM398 565l238 -564h-102l-192 440l-127 -290l-73 73l200 473z" />
    <glyph glyph-name="A" unicode="&#xc4;" horiz-adv-x="684" 
d="M48 1l65 154l72 -73l-36 -81h-101zM398 565l238 -564h-102l-192 440l-127 -290l-73 73l200 473z" />
    <glyph glyph-name="A" unicode="&#xc3;" horiz-adv-x="684" 
d="M48 1l65 154l72 -73l-36 -81h-101zM398 565l238 -564h-102l-192 440l-127 -290l-73 73l200 473z" />
    <glyph glyph-name="A" unicode="&#xc2;" horiz-adv-x="684" 
d="M48 1l65 154l72 -73l-36 -81h-101zM398 565l238 -564h-102l-192 440l-127 -290l-73 73l200 473z" />
    <glyph glyph-name="A" unicode="&#xc1;" horiz-adv-x="684" 
d="M48 1l65 154l72 -73l-36 -81h-101zM398 565l238 -564h-102l-192 440l-127 -290l-73 73l200 473z" />
    <glyph glyph-name="A" unicode="&#xc0;" horiz-adv-x="684" 
d="M48 1l65 154l72 -73l-36 -81h-101zM398 565l238 -564h-102l-192 440l-127 -290l-73 73l200 473z" />
    <glyph glyph-name="B" unicode="B" horiz-adv-x="536" 
d="M384 367q104 -33 104 -179q0 -80 -42.5 -133t-117.5 -53h-280v5v1v179l98 -99v0h1h98h29q20 0 38.5 8t32 21.5t21.5 32t8 38.5q0 28 -13.5 51t-36.5 36.5t-50 13.5h-125q-1 0 -1.5 -0.5t-1.5 -0.5v-101l-98 98v412h254q73 0 124 -51t51 -124q0 -50 -25.5 -91.5
t-67.5 -63.5zM292 415q39 0 66.5 27.5t27.5 66.5t-27.5 66.5t-66.5 27.5h-118h-28v-188h28h118z" />
    <glyph glyph-name="C" unicode="C" horiz-adv-x="751" 
d="M398 591q-88 0 -156 -56l-76 76q100 88 232 88q96 0 177.5 -49t127.5 -130h-134q-71 71 -171 71zM659 118l-61 61h105q-18 -32 -44 -61zM398 108q72 0 133 40l77 -77q-93 -71 -210 -71q-95 0 -175.5 47t-127.5 127.5t-47 174.5q0 117 71 211l77 -77q-40 -61 -40 -134
q0 -100 70.5 -170.5t171.5 -70.5z" />
    <glyph glyph-name="C" unicode="&#xc7;" horiz-adv-x="751" 
d="M398 591q-88 0 -156 -56l-76 76q100 88 232 88q96 0 177.5 -49t127.5 -130h-134q-71 71 -171 71zM659 118l-61 61h105q-18 -32 -44 -61zM398 108q72 0 133 40l77 -77q-93 -71 -210 -71q-95 0 -175.5 47t-127.5 127.5t-47 174.5q0 117 71 211l77 -77q-40 -61 -40 -134
q0 -100 70.5 -170.5t171.5 -70.5z" />
    <glyph glyph-name="D" unicode="D" horiz-adv-x="603" 
d="M205 699q95 0 175.5 -47t127.5 -127.5t47 -175t-47 -175t-127.5 -127.5t-175.5 -47h-157v347l99 -98v-134q28 -7 58 -7q100 0 171 70.5t71 171t-71 171t-171 70.5q-5 0 -58 -7v-237l-99 98v254h99h58z" />
    <glyph glyph-name="E" unicode="E" horiz-adv-x="543" 
d="M146 310v-113l-98 98v403h1h-1l8 -7l-8 8v1h411l35 -99h-348v-193h132v-98h-132zM246 98h213l35 -99h-446v198l98 -98v-1h1h99z" />
    <glyph glyph-name="E" unicode="&#xcb;" horiz-adv-x="543" 
d="M146 310v-113l-98 98v403h1h-1l8 -7l-8 8v1h411l35 -99h-348v-193h132v-98h-132zM246 98h213l35 -99h-446v198l98 -98v-1h1h99z" />
    <glyph glyph-name="E" unicode="&#xca;" horiz-adv-x="543" 
d="M146 310v-113l-98 98v403h1h-1l8 -7l-8 8v1h411l35 -99h-348v-193h132v-98h-132zM246 98h213l35 -99h-446v198l98 -98v-1h1h99z" />
    <glyph glyph-name="E" unicode="&#xc9;" horiz-adv-x="543" 
d="M146 310v-113l-98 98v403h1h-1l8 -7l-8 8v1h411l35 -99h-348v-193h132v-98h-132zM246 98h213l35 -99h-446v198l98 -98v-1h1h99z" />
    <glyph glyph-name="E" unicode="&#xc8;" horiz-adv-x="543" 
d="M146 310v-113l-98 98v403h1h-1l8 -7l-8 8v1h411l35 -99h-348v-193h132v-98h-132zM246 98h213l35 -99h-446v198l98 -98v-1h1h99z" />
    <glyph glyph-name="F" unicode="F" horiz-adv-x="543" 
d="M48 -1v199l98 -98v-101h-98zM146 601v-193h173v-99h-173v-111l-98 99v401h1h-1v1v1h411l35 -99h-348z" />
    <glyph glyph-name="G" unicode="G" horiz-adv-x="709" 
d="M440 369h220v-369h-98v41q-77 -41 -165 -41q-94 0 -174.5 47t-127.5 127.5t-47 174.5q0 47 13 94l95 -94q0 -100 70.5 -170.5t170.5 -70.5q95 0 165 65v98h-122v98zM397 591q-77 0 -139 -44t-88 -115l-81 82q45 84 127.5 134.5t180.5 50.5q71 0 134.5 -26.5t111.5 -74.5
l-71 -81q-71 74 -175 74z" />
    <glyph glyph-name="H" unicode="H" horiz-adv-x="597" 
d="M450 699h98v-699h-98v313h-39l-98 99h137v287zM146 411h69l98 -98l-167 -1v-312h-98v699h98v-288z" />
    <glyph glyph-name="I" unicode="I" horiz-adv-x="195" 
d="M48 0v325l98 -98v-227h-98zM48 699h98v-372l-98 100v272z" />
    <glyph glyph-name="I" unicode="&#xcf;" horiz-adv-x="195" 
d="M48 0v325l98 -98v-227h-98zM48 699h98v-372l-98 100v272z" />
    <glyph glyph-name="I" unicode="&#xce;" horiz-adv-x="195" 
d="M48 0v325l98 -98v-227h-98zM48 699h98v-372l-98 100v272z" />
    <glyph glyph-name="I" unicode="&#xcd;" horiz-adv-x="195" 
d="M48 0v325l98 -98v-227h-98zM48 699h98v-372l-98 100v272z" />
    <glyph glyph-name="I" unicode="&#xcc;" horiz-adv-x="195" 
d="M48 0v325l98 -98v-227h-98zM48 699h98v-372l-98 100v272z" />
    <glyph glyph-name="J" unicode="J" horiz-adv-x="427" 
d="M223 698h155v-99v-281l-101 103v178h-54v99zM181 106q45 16 68.5 74.5t26.5 138.5l100 -99q-11 -93 -64 -155.5t-124 -62.5q-129 0 -140 -1v104h67t66 1z" />
    <glyph glyph-name="K" unicode="K" horiz-adv-x="629" 
d="M581 700l-351 -351l351 -350h-132l-303 302v-1l-98 99v301h98v-302l303 302h132zM48 1v299l98 -98v-201h-98z" />
    <glyph glyph-name="L" unicode="L" horiz-adv-x="482" 
d="M146 699v-254l-98 98v156h98zM397 99l36 -98h-287v-1h-98v445l98 -98v-248h251z" />
    <glyph glyph-name="M" unicode="M" horiz-adv-x="719" 
d="M48 0v234l98 -98v-136h-98zM573 699h98v-699h-98v429l-197 -429h-1h-32l-197 428v-194l-98 99v366h98l213 -466z" />
    <glyph glyph-name="N" unicode="N" horiz-adv-x="584" 
d="M48 0v257l98 -99v-158h-98zM438 699h98v-699h-127l-263 454v-197l-98 98v344h84v0h1v-1l13 -22l292 -506v529z" />
    <glyph glyph-name="N" unicode="&#xd1;" horiz-adv-x="584" 
d="M48 0v257l98 -99v-158h-98zM438 699h98v-699h-127l-263 454v-197l-98 98v344h84v0h1v-1l13 -22l292 -506v529z" />
    <glyph glyph-name="O" unicode="O" horiz-adv-x="795" 
d="M397 699q95 0 175.5 -47t127.5 -127.5t47 -175.5q0 -132 -89 -232l-76 77q57 67 57 155q0 101 -70.5 171.5t-171.5 70.5q-88 0 -155 -57l-77 76q100 89 232 89zM397 108q73 0 133 39l77 -77q-93 -70 -210 -70q-94 0 -174.5 47t-127.5 127.5t-47 174.5q0 117 70 210
l77 -77q-39 -60 -39 -133q0 -100 70.5 -170.5t170.5 -70.5z" />
    <glyph glyph-name="O" unicode="&#xd8;" horiz-adv-x="795" 
d="M397 699q95 0 175.5 -47t127.5 -127.5t47 -175.5q0 -132 -89 -232l-76 77q57 67 57 155q0 101 -70.5 171.5t-171.5 70.5q-88 0 -155 -57l-77 76q100 89 232 89zM397 108q73 0 133 39l77 -77q-93 -70 -210 -70q-94 0 -174.5 47t-127.5 127.5t-47 174.5q0 117 70 210
l77 -77q-39 -60 -39 -133q0 -100 70.5 -170.5t170.5 -70.5z" />
    <glyph glyph-name="O" unicode="&#xd6;" horiz-adv-x="795" 
d="M397 699q95 0 175.5 -47t127.5 -127.5t47 -175.5q0 -132 -89 -232l-76 77q57 67 57 155q0 101 -70.5 171.5t-171.5 70.5q-88 0 -155 -57l-77 76q100 89 232 89zM397 108q73 0 133 39l77 -77q-93 -70 -210 -70q-94 0 -174.5 47t-127.5 127.5t-47 174.5q0 117 70 210
l77 -77q-39 -60 -39 -133q0 -100 70.5 -170.5t170.5 -70.5z" />
    <glyph glyph-name="O" unicode="&#xd5;" horiz-adv-x="795" 
d="M397 699q95 0 175.5 -47t127.5 -127.5t47 -175.5q0 -132 -89 -232l-76 77q57 67 57 155q0 101 -70.5 171.5t-171.5 70.5q-88 0 -155 -57l-77 76q100 89 232 89zM397 108q73 0 133 39l77 -77q-93 -70 -210 -70q-94 0 -174.5 47t-127.5 127.5t-47 174.5q0 117 70 210
l77 -77q-39 -60 -39 -133q0 -100 70.5 -170.5t170.5 -70.5z" />
    <glyph glyph-name="O" unicode="&#xd4;" horiz-adv-x="795" 
d="M397 699q95 0 175.5 -47t127.5 -127.5t47 -175.5q0 -132 -89 -232l-76 77q57 67 57 155q0 101 -70.5 171.5t-171.5 70.5q-88 0 -155 -57l-77 76q100 89 232 89zM397 108q73 0 133 39l77 -77q-93 -70 -210 -70q-94 0 -174.5 47t-127.5 127.5t-47 174.5q0 117 70 210
l77 -77q-39 -60 -39 -133q0 -100 70.5 -170.5t170.5 -70.5z" />
    <glyph glyph-name="O" unicode="&#xd3;" horiz-adv-x="795" 
d="M397 699q95 0 175.5 -47t127.5 -127.5t47 -175.5q0 -132 -89 -232l-76 77q57 67 57 155q0 101 -70.5 171.5t-171.5 70.5q-88 0 -155 -57l-77 76q100 89 232 89zM397 108q73 0 133 39l77 -77q-93 -70 -210 -70q-94 0 -174.5 47t-127.5 127.5t-47 174.5q0 117 70 210
l77 -77q-39 -60 -39 -133q0 -100 70.5 -170.5t170.5 -70.5z" />
    <glyph glyph-name="O" unicode="&#xd2;" horiz-adv-x="795" 
d="M397 699q95 0 175.5 -47t127.5 -127.5t47 -175.5q0 -132 -89 -232l-76 77q57 67 57 155q0 101 -70.5 171.5t-171.5 70.5q-88 0 -155 -57l-77 76q100 89 232 89zM397 108q73 0 133 39l77 -77q-93 -70 -210 -70q-94 0 -174.5 47t-127.5 127.5t-47 174.5q0 117 70 210
l77 -77q-39 -60 -39 -133q0 -100 70.5 -170.5t170.5 -70.5z" />
    <glyph glyph-name="P" unicode="P" horiz-adv-x="504" 
d="M238 697q102 0 169 -57t67 -143q0 -88 -67 -152t-167 -64h-93v-282h-99v599l99 -98v-115h95q56 0 95 30.5t39 73t-39 72.5t-95 30h-88l-106 106h99v-1z" />
    <glyph glyph-name="Q" unicode="Q" horiz-adv-x="849" 
d="M687 158l114 -71l-52 -84l-129 81q-96 -81 -223 -81q-94 0 -174.5 47t-127.5 127.5t-47 175.5q0 113 68 206l77 -78q-37 -59 -37 -128q0 -100 70.5 -171t170.5 -71q67 0 125 35l-69 43l52 83l91 -57q43 62 43 138q0 100 -70.5 171t-171.5 71q-90 0 -159 -61l-76 77
q100 91 235 91q95 0 175.5 -46.5t127.5 -127t47 -175.5q0 -107 -60 -195z" />
    <glyph glyph-name="R" unicode="R" horiz-adv-x="554" 
d="M48 5v600l99 -98v-502h-99zM331 304l174 -302h-131l-166 285h-32v105h66q56 0 95 30t39 73t-39 73t-95 30h-88l-106 106h99v-1l91 1q102 0 169 -57.5t67 -143.5q0 -65 -39 -119.5t-104 -79.5z" />
    <glyph glyph-name="S" unicode="S" horiz-adv-x="501" 
d="M250 601q-50 0 -79 -41l-75 74q61 71 154 71q84 0 143.5 -59t59.5 -143h-105q0 26 -13 48.5t-35.5 36t-49.5 13.5zM386 353q67 -60 67 -150q0 -55 -27.5 -102t-74 -74t-101.5 -27q-83 0 -142.5 59.5t-59.5 143.5h104q0 -41 29 -69.5t69.5 -28.5t69 28.5t28.5 69
t-28.5 69.5t-69.5 29q-77 0 -135 52q-67 60 -67 150q0 35 12 69l97 -97q9 -31 35 -50.5t58 -19.5q78 0 136 -52z" />
    <glyph glyph-name="T" unicode="T" horiz-adv-x="527" 
d="M312 697h167v-98h-69zM48 697h165l100 -99v-599h-99v600h-166v98z" />
    <glyph glyph-name="U" unicode="U" horiz-adv-x="559" 
d="M145 366q0 -49 5 -91l-102 102v155q0 7 0.5 78t-0.5 88h99q-2 -20 -2 -37v-295zM510 697v-167v-290q0 -106 -52 -174t-149 -68h-61q-65 0 -111 33.5t-67.5 87.5t-21.5 123v36l163 -163h1q22 -19 48 -19h35q52 0 84 70.5t33 199.5v295v37z" />
    <glyph glyph-name="U" unicode="&#xdc;" horiz-adv-x="559" 
d="M145 366q0 -49 5 -91l-102 102v155q0 7 0.5 78t-0.5 88h99q-2 -20 -2 -37v-295zM510 697v-167v-290q0 -106 -52 -174t-149 -68h-61q-65 0 -111 33.5t-67.5 87.5t-21.5 123v36l163 -163h1q22 -19 48 -19h35q52 0 84 70.5t33 199.5v295v37z" />
    <glyph glyph-name="U" unicode="&#xdb;" horiz-adv-x="559" 
d="M145 366q0 -49 5 -91l-102 102v155q0 7 0.5 78t-0.5 88h99q-2 -20 -2 -37v-295zM510 697v-167v-290q0 -106 -52 -174t-149 -68h-61q-65 0 -111 33.5t-67.5 87.5t-21.5 123v36l163 -163h1q22 -19 48 -19h35q52 0 84 70.5t33 199.5v295v37z" />
    <glyph glyph-name="U" unicode="&#xda;" horiz-adv-x="559" 
d="M145 366q0 -49 5 -91l-102 102v155q0 7 0.5 78t-0.5 88h99q-2 -20 -2 -37v-295zM510 697v-167v-290q0 -106 -52 -174t-149 -68h-61q-65 0 -111 33.5t-67.5 87.5t-21.5 123v36l163 -163h1q22 -19 48 -19h35q52 0 84 70.5t33 199.5v295v37z" />
    <glyph glyph-name="U" unicode="&#xd9;" horiz-adv-x="559" 
d="M145 366q0 -49 5 -91l-102 102v155q0 7 0.5 78t-0.5 88h99q-2 -20 -2 -37v-295zM510 697v-167v-290q0 -106 -52 -174t-149 -68h-61q-65 0 -111 33.5t-67.5 87.5t-21.5 123v36l163 -163h1q22 -19 48 -19h35q52 0 84 70.5t33 199.5v295v37z" />
    <glyph glyph-name="V" unicode="V" horiz-adv-x="684" 
d="M534 705h102l-65 -153l-72 72zM342 265l127 291l73 -73l-200 -474l-56 132l-238 564h101z" />
    <glyph glyph-name="W" unicode="W" horiz-adv-x="926" 
d="M784 703h93l-41 -156l-73 73zM645 178l97 365l73 -74l-123 -465h-1l1 -1h-94l-135 511l-136 -511v0h-93l-186 699h93l139 -524l136 510h93z" />
    <glyph glyph-name="X" unicode="X" horiz-adv-x="632" 
d="M468 516l-102 -163l218 -350h-93l-173 272l-2 -3l-2 3l-174 -272h-92l218 350l-218 349h92l174 -271l2 -3l94 146zM584 702l-78 -125l-58 57l43 68h93z" />
    <glyph glyph-name="Y" unicode="Y" horiz-adv-x="648" 
d="M534 702h102l-79 -127l-64 63zM342 402l113 176l64 -63l-128 -206v-306h-98v306l-245 393h101z" />
    <glyph glyph-name="Y" unicode="&#xdd;" horiz-adv-x="648" 
d="M534 702h102l-79 -127l-64 63zM342 402l113 176l64 -63l-128 -206v-306h-98v306l-245 393h101z" />
    <glyph glyph-name="Z" unicode="Z" horiz-adv-x="598" 
d="M395 604h-289l36 98h408l-200 -346l-63 62zM314 293l-111 -191h289l-36 -99h-408l203 352z" />
    <glyph glyph-name="bracketleft" unicode="[" horiz-adv-x="336" 
d="M287 601h-141v-497h141v-98h-239v693h239v-98z" />
    <glyph glyph-name="backslash" unicode="\" horiz-adv-x="309" 
d="M50 696l209 -687h-79l-210 687h80z" />
    <glyph glyph-name="bracketright" unicode="]" horiz-adv-x="336" 
d="M48 686h239v-693h-239v98h141v496h-141v99z" />
    <glyph glyph-name="asciicircum" unicode="^" horiz-adv-x="483" 
d="M246 693l189 -178v-130l-189 179l-198 -179v130z" />
    <glyph glyph-name="underscore" unicode="_" horiz-adv-x="643" 
d="M595 4h-547v104h547v-104z" />
    <glyph glyph-name="grave" unicode="`" horiz-adv-x="227" 
d="M142 572l37 -116l-94 -30l-37 116l18 81l93 30z" />
    <glyph glyph-name="a" unicode="a" horiz-adv-x="552" 
d="M48 -2l53 125l58 -59l-29 -66h-82zM332 457l194 -459h-83l-156 358l-104 -236l-59 59l163 385z" />
    <glyph glyph-name="a" unicode="&#xe5;" horiz-adv-x="552" 
d="M48 -2l53 125l58 -59l-29 -66h-82zM332 457l194 -459h-83l-156 358l-104 -236l-59 59l163 385z" />
    <glyph glyph-name="a" unicode="&#xe4;" horiz-adv-x="552" 
d="M48 -2l53 125l58 -59l-29 -66h-82zM332 457l194 -459h-83l-156 358l-104 -236l-59 59l163 385z" />
    <glyph glyph-name="a" unicode="&#xe3;" horiz-adv-x="552" 
d="M48 -2l53 125l58 -59l-29 -66h-82zM332 457l194 -459h-83l-156 358l-104 -236l-59 59l163 385z" />
    <glyph glyph-name="a" unicode="&#xe2;" horiz-adv-x="552" 
d="M48 -2l53 125l58 -59l-29 -66h-82zM332 457l194 -459h-83l-156 358l-104 -236l-59 59l163 385z" />
    <glyph glyph-name="a" unicode="&#xe1;" horiz-adv-x="552" 
d="M48 -2l53 125l58 -59l-29 -66h-82zM332 457l194 -459h-83l-156 358l-104 -236l-59 59l163 385z" />
    <glyph glyph-name="a" unicode="&#xe0;" horiz-adv-x="552" 
d="M48 -2l53 125l58 -59l-29 -66h-82zM332 457l194 -459h-83l-156 358l-104 -236l-59 59l163 385z" />
    <glyph glyph-name="b" unicode="b" horiz-adv-x="454" 
d="M321 295q84 -26 84 -145q0 -65 -34.5 -108.5t-94.5 -43.5h-228v5v146l80 -80v-1h80v1h24q33 0 57 23.5t24 57.5t-24 58t-57 24h-102l-1 -0.5l-1 -0.5v-82l-80 80v335h206q59 0 101 -42t42 -101q0 -40 -21 -74t-55 -52zM246 334q32 0 54.5 22.5t22.5 54t-22.5 54
t-54.5 22.5h-95h-23l-1 -153h24h95z" />
    <glyph glyph-name="c" unicode="c" horiz-adv-x="628" 
d="M332 478q-71 0 -126 -46l-62 62q81 71 188 71q79 0 145 -39.5t103 -106.5h-109q-57 59 -139 59zM545 93l-50 50h85q-15 -26 -35 -50zM332 85q59 0 109 32l62 -62q-76 -58 -171 -58q-118 0 -201 83t-83 201q0 95 58 171l62 -62q-32 -50 -32 -109q0 -81 57.5 -138.5
t138.5 -57.5z" />
    <glyph glyph-name="c" unicode="&#xe7;" horiz-adv-x="628" 
d="M332 478q-71 0 -126 -46l-62 62q81 71 188 71q79 0 145 -39.5t103 -106.5h-109q-57 59 -139 59zM545 93l-50 50h85q-15 -26 -35 -50zM332 85q59 0 109 32l62 -62q-76 -58 -171 -58q-118 0 -201 83t-83 201q0 95 58 171l62 -62q-32 -50 -32 -109q0 -81 57.5 -138.5
t138.5 -57.5z" />
    <glyph glyph-name="d" unicode="d" horiz-adv-x="508" 
d="M176 565q117 0 200.5 -83t83.5 -200.5t-83.5 -201t-200.5 -83.5h-128v282l80 -80v-109q23 -5 48 -5q81 0 138.5 57.5t57.5 138.5q0 54 -26 99t-71.5 71.5t-98.5 26.5q-5 0 -48 -6v-193l-80 80v206h80h48z" />
    <glyph glyph-name="e" unicode="e" horiz-adv-x="459" 
d="M128 249v-92l-80 80v327v1l6 -6l-6 6v1h334l29 -80h-283v-157h107v-80h-107zM209 76h173l29 -79h-363v160l80 -80v-1h1h80z" />
    <glyph glyph-name="e" unicode="&#xeb;" horiz-adv-x="459" 
d="M128 249v-92l-80 80v327v1l6 -6l-6 6v1h334l29 -80h-283v-157h107v-80h-107zM209 76h173l29 -79h-363v160l80 -80v-1h1h80z" />
    <glyph glyph-name="e" unicode="&#xea;" horiz-adv-x="459" 
d="M128 249v-92l-80 80v327v1l6 -6l-6 6v1h334l29 -80h-283v-157h107v-80h-107zM209 76h173l29 -79h-363v160l80 -80v-1h1h80z" />
    <glyph glyph-name="e" unicode="&#xe9;" horiz-adv-x="459" 
d="M128 249v-92l-80 80v327v1l6 -6l-6 6v1h334l29 -80h-283v-157h107v-80h-107zM209 76h173l29 -79h-363v160l80 -80v-1h1h80z" />
    <glyph glyph-name="e" unicode="&#xe8;" horiz-adv-x="459" 
d="M128 249v-92l-80 80v327v1l6 -6l-6 6v1h334l29 -80h-283v-157h107v-80h-107zM209 76h173l29 -79h-363v160l80 -80v-1h1h80z" />
    <glyph glyph-name="f" unicode="f" horiz-adv-x="459" 
d="M48 -3v161l80 -80v-81h-80zM128 486v-157h141v-80h-141v-91l-80 80v326v1v1h334l29 -80h-283z" />
    <glyph glyph-name="g" unicode="g" horiz-adv-x="594" 
d="M367 217v80h179v-300h-80v34q-63 -34 -134 -34q-118 0 -201 83t-83 201q0 38 11 76l76 -76q1 -82 58.5 -139t138.5 -57q77 0 134 52v80h-99zM332 478q-63 0 -113.5 -36t-71.5 -94l-66 67q37 68 104 109t147 41q117 0 200 -82l-58 -66q-58 61 -142 61z" />
    <glyph glyph-name="h" unicode="h" horiz-adv-x="503" 
d="M375 565h80v-568h-80v254h-32l-80 80l112 1v233zM128 331h56l79 -80h-135v-254h-80v568h80v-234z" />
    <glyph glyph-name="i" unicode="i" horiz-adv-x="176" 
d="M48 -3v263l80 -80v-183h-80zM48 562h80v-301l-80 81v220z" />
    <glyph glyph-name="i" unicode="&#xef;" horiz-adv-x="176" 
d="M48 -3v263l80 -80v-183h-80zM48 562h80v-301l-80 81v220z" />
    <glyph glyph-name="i" unicode="&#xee;" horiz-adv-x="176" 
d="M48 -3v263l80 -80v-183h-80zM48 562h80v-301l-80 81v220z" />
    <glyph glyph-name="i" unicode="&#xed;" horiz-adv-x="176" 
d="M48 -3v263l80 -80v-183h-80zM48 562h80v-301l-80 81v220z" />
    <glyph glyph-name="i" unicode="&#xec;" horiz-adv-x="176" 
d="M48 -3v263l80 -80v-183h-80zM48 562h80v-301l-80 81v220z" />
    <glyph glyph-name="j" unicode="j" horiz-adv-x="363" 
d="M189 560h126v-79v-228l-82 83v145h-44v79zM156 81q36 14 55 61t22 112l80 -80q-8 -76 -51 -126.5t-101 -50.5h-29.5h-53.5h-30v84h54h54z" />
    <glyph glyph-name="k" unicode="k" horiz-adv-x="529" 
d="M481 566l-285 -285l285 -285h-108l-245 246v-1l-80 80v245h80v-246l245 246h108zM48 -2v243l80 -80v-163h-80z" />
    <glyph glyph-name="l" unicode="l" horiz-adv-x="410" 
d="M128 565v-206l-80 80v126h80zM332 78l29 -80h-233v-1h-80v362l80 -80v-201h204z" />
    <glyph glyph-name="m" unicode="m" horiz-adv-x="603" 
d="M48 -3v190l80 -79v-111h-80zM474 565h80v-568h-80v349l-160 -349v0h-26l-160 348v-158l-80 80v298h80l173 -378z" />
    <glyph glyph-name="n" unicode="n" horiz-adv-x="493" 
d="M48 -3v209l80 -80v-129h-80zM365 565h80v-568h-104l-213 369v-160l-80 80v279h69v-1l10 -18l238 -410v429z" />
    <glyph glyph-name="n" unicode="&#xf1;" horiz-adv-x="493" 
d="M48 -3v209l80 -80v-129h-80zM365 565h80v-568h-104l-213 369v-160l-80 80v279h69v-1l10 -18l238 -410v429z" />
    <glyph glyph-name="o" unicode="o" horiz-adv-x="664" 
d="M332 565q118 0 201 -83t83 -201q0 -107 -72 -188l-62 61q46 55 46 127q0 82 -57.5 139.5t-138.5 57.5q-72 0 -127 -47l-62 62q81 72 189 72zM332 85q59 0 108 32l62 -63q-76 -57 -170 -57q-118 0 -201 83t-83 201q0 94 57 170l63 -62q-33 -49 -33 -108q0 -81 58 -138.5
t139 -57.5z" />
    <glyph glyph-name="o" unicode="&#xf8;" horiz-adv-x="664" 
d="M332 565q118 0 201 -83t83 -201q0 -107 -72 -188l-62 61q46 55 46 127q0 82 -57.5 139.5t-138.5 57.5q-72 0 -127 -47l-62 62q81 72 189 72zM332 85q59 0 108 32l62 -63q-76 -57 -170 -57q-118 0 -201 83t-83 201q0 94 57 170l63 -62q-33 -49 -33 -108q0 -81 58 -138.5
t139 -57.5z" />
    <glyph glyph-name="o" unicode="&#xf6;" horiz-adv-x="664" 
d="M332 565q118 0 201 -83t83 -201q0 -107 -72 -188l-62 61q46 55 46 127q0 82 -57.5 139.5t-138.5 57.5q-72 0 -127 -47l-62 62q81 72 189 72zM332 85q59 0 108 32l62 -63q-76 -57 -170 -57q-118 0 -201 83t-83 201q0 94 57 170l63 -62q-33 -49 -33 -108q0 -81 58 -138.5
t139 -57.5z" />
    <glyph glyph-name="o" unicode="&#xf5;" horiz-adv-x="664" 
d="M332 565q118 0 201 -83t83 -201q0 -107 -72 -188l-62 61q46 55 46 127q0 82 -57.5 139.5t-138.5 57.5q-72 0 -127 -47l-62 62q81 72 189 72zM332 85q59 0 108 32l62 -63q-76 -57 -170 -57q-118 0 -201 83t-83 201q0 94 57 170l63 -62q-33 -49 -33 -108q0 -81 58 -138.5
t139 -57.5z" />
    <glyph glyph-name="o" unicode="&#xf4;" horiz-adv-x="664" 
d="M332 565q118 0 201 -83t83 -201q0 -107 -72 -188l-62 61q46 55 46 127q0 82 -57.5 139.5t-138.5 57.5q-72 0 -127 -47l-62 62q81 72 189 72zM332 85q59 0 108 32l62 -63q-76 -57 -170 -57q-118 0 -201 83t-83 201q0 94 57 170l63 -62q-33 -49 -33 -108q0 -81 58 -138.5
t139 -57.5z" />
    <glyph glyph-name="o" unicode="&#xf3;" horiz-adv-x="664" 
d="M332 565q118 0 201 -83t83 -201q0 -107 -72 -188l-62 61q46 55 46 127q0 82 -57.5 139.5t-138.5 57.5q-72 0 -127 -47l-62 62q81 72 189 72zM332 85q59 0 108 32l62 -63q-76 -57 -170 -57q-118 0 -201 83t-83 201q0 94 57 170l63 -62q-33 -49 -33 -108q0 -81 58 -138.5
t139 -57.5z" />
    <glyph glyph-name="o" unicode="&#xf2;" horiz-adv-x="664" 
d="M332 565q118 0 201 -83t83 -201q0 -107 -72 -188l-62 61q46 55 46 127q0 82 -57.5 139.5t-138.5 57.5q-72 0 -127 -47l-62 62q81 72 189 72zM332 85q59 0 108 32l62 -63q-76 -57 -170 -57q-118 0 -201 83t-83 201q0 94 57 170l63 -62q-33 -49 -33 -108q0 -81 58 -138.5
t139 -57.5z" />
    <glyph glyph-name="p" unicode="p" horiz-adv-x="443" 
d="M203 564q82 0 136.5 -46.5t54.5 -116.5q0 -35 -14.5 -67t-39 -56t-60.5 -38.5t-76 -14.5h-76v-229h-80v487l80 -80v-93h78q45 0 77 24.5t32 59.5q0 17 -8.5 32.5t-23.5 26.5t-35 18t-42 7h-72l-86 85v1h80v-1z" />
    <glyph glyph-name="q" unicode="q" horiz-adv-x="708" 
d="M568 125l92 -58l-43 -67l-104 65q-79 -65 -181 -65q-118 0 -201 83t-83 201q0 92 55 167l63 -63q-31 -48 -31 -104q0 -82 58 -139.5t139 -57.5q54 0 101 28l-56 36l42 67l74 -46q36 50 36 112q0 53 -26.5 98.5t-72 71.5t-98.5 26q-74 0 -129 -49l-62 62q81 75 191 75
q118 0 201 -83.5t83 -200.5q0 -87 -48 -159z" />
    <glyph glyph-name="r" unicode="r" horiz-adv-x="468" 
d="M48 1v488l80 -80v-408h-80zM278 244l142 -246h-108l-134 233h-26v84h54q45 0 77 24.5t32 59.5t-32 59.5t-77 24.5h-72l-86 86h80v-1l75 1q82 0 136.5 -46.5t54.5 -116.5q0 -53 -32 -97.5t-84 -64.5z" />
    <glyph glyph-name="s" unicode="s" horiz-adv-x="425" 
d="M212 485q-40 0 -64 -33l-61 60q50 58 125 58q68 0 116.5 -48t48.5 -116h-85q0 21 -10.5 39.5t-29 29t-40.5 10.5zM322 284q55 -49 55 -122q0 -68 -48.5 -116.5t-116.5 -48.5t-116 48.5t-48 116.5h85q0 -33 23 -56.5t56 -23.5t56.5 23.5t23.5 56.5t-23.5 56t-56.5 23
q-63 0 -110 43q-54 49 -54 122q0 28 10 56l78 -79q8 -25 29 -41t47 -16q63 0 110 -42z" />
    <glyph glyph-name="s" unicode="&#xdf;" horiz-adv-x="425" 
d="M212 485q-40 0 -64 -33l-61 60q50 58 125 58q68 0 116.5 -48t48.5 -116h-85q0 21 -10.5 39.5t-29 29t-40.5 10.5zM322 284q55 -49 55 -122q0 -68 -48.5 -116.5t-116.5 -48.5t-116 48.5t-48 116.5h85q0 -33 23 -56.5t56 -23.5t56.5 23.5t23.5 56.5t-23.5 56t-56.5 23
q-63 0 -110 43q-54 49 -54 122q0 28 10 56l78 -79q8 -25 29 -41t47 -16q63 0 110 -42z" />
    <glyph glyph-name="t" unicode="t" horiz-adv-x="447" 
d="M262 564h136v-80h-56zM48 564h134l81 -81v-487h-80v488h-135v80z" />
    <glyph glyph-name="u" unicode="u" horiz-adv-x="472" 
d="M127 294q0 -39 4 -74l-83 83v126q0 6 0.5 63.5t-0.5 71.5h80q-1 -16 -1 -30v-240zM423 563q1 -15 0.5 -71.5t-0.5 -63.5v-236q0 -86 -42 -141.5t-121 -55.5h-49q-53 0 -90.5 27t-55 71t-17.5 101v29l133 -132q18 -16 39 -16h29q42 0 68 57t27 162v240q0 24 -1 30z" />
    <glyph glyph-name="u" unicode="&#xfc;" horiz-adv-x="472" 
d="M127 294q0 -39 4 -74l-83 83v126q0 6 0.5 63.5t-0.5 71.5h80q-1 -16 -1 -30v-240zM423 563q1 -15 0.5 -71.5t-0.5 -63.5v-236q0 -86 -42 -141.5t-121 -55.5h-49q-53 0 -90.5 27t-55 71t-17.5 101v29l133 -132q18 -16 39 -16h29q42 0 68 57t27 162v240q0 24 -1 30z" />
    <glyph glyph-name="u" unicode="&#xfb;" horiz-adv-x="472" 
d="M127 294q0 -39 4 -74l-83 83v126q0 6 0.5 63.5t-0.5 71.5h80q-1 -16 -1 -30v-240zM423 563q1 -15 0.5 -71.5t-0.5 -63.5v-236q0 -86 -42 -141.5t-121 -55.5h-49q-53 0 -90.5 27t-55 71t-17.5 101v29l133 -132q18 -16 39 -16h29q42 0 68 57t27 162v240q0 24 -1 30z" />
    <glyph glyph-name="u" unicode="&#xfa;" horiz-adv-x="472" 
d="M127 294q0 -39 4 -74l-83 83v126q0 6 0.5 63.5t-0.5 71.5h80q-1 -16 -1 -30v-240zM423 563q1 -15 0.5 -71.5t-0.5 -63.5v-236q0 -86 -42 -141.5t-121 -55.5h-49q-53 0 -90.5 27t-55 71t-17.5 101v29l133 -132q18 -16 39 -16h29q42 0 68 57t27 162v240q0 24 -1 30z" />
    <glyph glyph-name="u" unicode="&#xf9;" horiz-adv-x="472" 
d="M127 294q0 -39 4 -74l-83 83v126q0 6 0.5 63.5t-0.5 71.5h80q-1 -16 -1 -30v-240zM423 563q1 -15 0.5 -71.5t-0.5 -63.5v-236q0 -86 -42 -141.5t-121 -55.5h-49q-53 0 -90.5 27t-55 71t-17.5 101v29l133 -132q18 -16 39 -16h29q42 0 68 57t27 162v240q0 24 -1 30z" />
    <glyph glyph-name="v" unicode="v" horiz-adv-x="574" 
d="M443 570h83l-53 -124l-59 58zM287 213l103 236l59 -60l-162 -384l-45 107l-194 458h82z" />
    <glyph glyph-name="w" unicode="w" horiz-adv-x="770" 
d="M646 568h76l-34 -127l-59 60zM533 142l79 296l59 -60l-100 -378v0h-76l-110 415v-1l-110 -414h-1l1 -1h-76l-151 568h76l113 -425l110 414h76z" />
    <glyph glyph-name="x" unicode="x" horiz-adv-x="532" 
d="M389 416l-82 -132l176 -284h-75l-141 220l-1 -2l-2 2l-141 -220h-75l177 284l-177 284h75l141 -221l2 -2l76 119zM483 568l-63 -102l-47 46l35 56h75z" />
    <glyph glyph-name="y" unicode="y" horiz-adv-x="574" 
d="M443 568h83l-65 -103l-51 51zM287 324l92 143l52 -52l-104 -166v-249h-80v249l-199 319h82z" />
    <glyph glyph-name="y" unicode="&#xff;" horiz-adv-x="574" 
d="M443 568h83l-65 -103l-51 51zM287 324l92 143l52 -52l-104 -166v-249h-80v249l-199 319h82z" />
    <glyph glyph-name="y" unicode="&#xfd;" horiz-adv-x="574" 
d="M443 568h83l-65 -103l-51 51zM287 324l92 143l52 -52l-104 -166v-249h-80v249l-199 319h82z" />
    <glyph glyph-name="z" unicode="z" horiz-adv-x="504" 
d="M330 488h-235l29 80h332l-163 -282l-50 51zM264 235l-90 -155h234l-29 -80h-331l165 286z" />
    <glyph glyph-name="braceleft" unicode="{" horiz-adv-x="301" 
d="M166 113q0 -77 70 -77l16 -49h-18q-129 0 -129 121q0 25 7.5 72.5t7.5 71.5q0 10 -1.5 20t-6 23.5t-12 23.5t-21 17t-31.5 7q22 0 37.5 8.5t22 23t9.5 27t3 26.5q0 25 -7.5 74.5t-7.5 73.5q0 58 34.5 86.5t94.5 28.5h18l-16 -48q-37 0 -53.5 -19.5t-16.5 -56.5
q0 -26 7 -63q6 -39 6 -67q1 -78 -64 -96v-1q65 -16 64 -97q0 -30 -6 -67q-7 -38 -7 -63z" />
    <glyph glyph-name="verticalbar" unicode="|" horiz-adv-x="195" 
d="M146 4h-98v699h98v-699z" />
    <glyph glyph-name="braceright" unicode="}" horiz-adv-x="301" 
d="M252 343q-22 0 -37.5 -10t-22 -25.5t-9 -29t-2.5 -26.5q0 -24 7 -71.5t7 -72.5q0 -121 -128 -121h-19l16 49q70 0 70 77q0 24 -6 63q-7 37 -7 67q-1 81 64 97v1q-65 18 -64 96q0 28 7 67q6 37 6 63q0 37 -16.5 56.5t-53.5 19.5l-16 48h19q59 0 93.5 -28.5t34.5 -86.5
q0 -24 -7 -73.5t-7 -74.5q0 -14 2.5 -27t9 -27t22 -22.5t37.5 -8.5z" />
    <glyph glyph-name="asciitilde" unicode="~" horiz-adv-x="616" 
d="M292 355q28 -25 63 -34t65.5 -5t62 16t51 23t33.5 22v-100q-17 -13 -46 -25t-68 -20t-82.5 2t-78.5 41q-33 30 -70.5 39t-67 0t-54.5 -22t-38 -25l-14 -13v101q5 4 14 11t37.5 19.5t56 16.5t65.5 -6.5t71 -40.5z" />
    <glyph glyph-name="nonbreakingspace" unicode="&#xa0;" horiz-adv-x="306" 
 />
    <glyph glyph-name="sterling" unicode="&#xa3;" horiz-adv-x="499" 
d="M245 130h205v-124h-328q-39 -2 -46 8q-5 6 -5 18t4 25t10 28t12.5 28l12 24t9.5 17l4 6v64h-75v91h76v28h-76v92h76l1 258h122v-2h82l85 -152l-167 -1l-1 -103h82v-92h-82v-28h82v-91h-82l-1 -59v-35z" />
    <glyph glyph-name="copyright" unicode="&#xa9;" horiz-adv-x="513" 
d="M261.5 400q-22.5 0 -38.5 -16t-16 -39t16 -39t38.5 -16t38.5 16h30q-10 -18 -28.5 -29t-40.5 -11q-32 0 -55.5 23t-23.5 56t23.5 56t55.5 23q22 0 40.5 -11t28.5 -30h-30q-16 17 -38.5 17zM256.5 553q86.5 0 147.5 -61t61 -147t-61 -147t-147.5 -61t-147.5 61t-61 147
t61 147t147.5 61zM256.5 201q59.5 0 102 42t42.5 102t-42.5 102t-102 42t-102 -42t-42.5 -102t42.5 -102t102 -42z" />
    <glyph glyph-name="softhyphen" unicode="&#xad;" 
 />
    <glyph glyph-name="plusminus" unicode="&#xb1;" horiz-adv-x="392" 
d="M155 324v105h-107v82h107v109h81v-109h107v-82h-107v-105h-81zM343 192h-295v82h295v-82z" />
    <glyph glyph-name="multiply" unicode="&#xd7;" horiz-adv-x="440" 
d="M293 324l98 -95l-72 -75l-98 95l-93 -96l-75 72l93 96l-98 95l72 75l98 -95l97 100l75 -72z" />
    <glyph glyph-name="divide" unicode="&#xf7;" horiz-adv-x="473" 
d="M425 272h-377v104h377v-104zM236.5 425q-29.5 0 -50.5 21t-21 50.5t21 50t50.5 20.5t50.5 -20.5t21 -50t-21 -50.5t-50.5 -21zM236 233q30 0 51 -21t21 -50.5t-21 -50.5t-50.5 -21t-50.5 21t-21 50q0 20 9.5 36.5t26 26t35.5 9.5z" />
    <glyph glyph-name="Euro" unicode="&#x20ac;" horiz-adv-x="601" 
d="M351 615q-51 0 -87 -44.5t-35 -107.5v-8h99v-91h-99v-28h99v-92h-99q1 -40 17.5 -74t44.5 -53.5t60 -19.5q43 0 76.5 33t43.5 84h82q0 -84 -59 -143t-142.5 -59t-142.5 59t-59 143v30h-102v92h102v28h-102v91h102v44q0 83 59 142t142.5 59t142.5 -59t59 -142v-35h-79
q0 62 -36 106.5t-87 44.5z" />
    <glyph glyph-name="notequal" unicode="&#x2260;" horiz-adv-x="515" 
d="M445 345h-112l-23 -40h136l-1 -104h-193l-113 -203l-91 51l85 152h-64v104h122l23 40h-145v104h203l104 185l90 -51l-75 -134h55z" />
    <glyph glyph-name="lessequal" unicode="&#x2264;" horiz-adv-x="674" 
d="M261 224l365 1v-90h-578l519 561l-4 -158zM537 8h-341v94h341v-94z" />
    <glyph glyph-name="greaterequal" unicode="&#x2265;" horiz-adv-x="674" 
d="M107 697l519 -561h-578v89l365 -1l-302 315zM478 8h-341v94h341v-94z" />
    </font>
</defs>
</svg>
